<?xml version="1.0" encoding="UTF-8" standalone="no"?>
<!DOCTYPE svg PUBLIC "-//W3C//DTD SVG 1.1//EN" "http://www.w3.org/Graphics/SVG/1.1/DTD/svg11.dtd">
<svg width="100%" height="100%" viewBox="0 0 256 256" version="1.1" xmlns="http://www.w3.org/2000/svg" xmlns:xlink="http://www.w3.org/1999/xlink" xml:space="preserve" xmlns:serif="http://www.serif.com/" style="fill-rule:evenodd;clip-rule:evenodd;stroke-linejoin:round;stroke-miterlimit:1.41421;">
    <rect id="Logo-Design" serif:id="Logo Design" x="0" y="0" width="256" height="256" style="fill:none;"/>
    <clipPath id="_clip1">
        <rect id="Logo-Design1" serif:id="Logo Design" x="0" y="0" width="256" height="256"/>
    </clipPath>
    <g clip-path="url(#_clip1)">
        <g id="Logo" transform="matrix(0.254473,0,0,0.254473,-2.29026,-2.29026)">
            <g transform="matrix(5.68434e-14,1006,1006,-5.68434e-14,512,9.00002)">
                <circle cx="0.5" cy="0" r="0.5" style="fill:url(#_Linear2);"/>
            </g>
            <g transform="matrix(1,0,0,1,565.605,466.133)">
                <path d="M0,11.189L82.755,-28.521L83.594,-55.828L-22.436,-54.885L-31.191,150.429L-52.65,163.819L-75.639,150.429L-84.406,-54.885L-190.424,-55.828L-189.592,-28.521L-106.177,12.106L-123.262,343.237L-271.467,230.851C-271.467,230.851 -233.97,-85.476 -230.564,-97.959C-202.158,-202.117 -82.201,-214.891 -82.201,-214.891L-77.696,-316.011L-54.533,-332.048L-31.377,-316.011L-26.49,-214.998C-26.49,-214.998 99.761,-202.094 123.593,-108.487C134.755,-64.603 164.633,230.851 164.633,230.851L16.428,343.237" style="fill:rgb(245,245,246);"/>
            </g>
        </g>
    </g>
    <defs>
        <linearGradient id="_Linear2" x1="0" y1="0" x2="1" y2="0" gradientUnits="userSpaceOnUse" gradientTransform="matrix(0.707107,0.707107,0.707107,-0.707107,0.146447,-0.353553)"><stop offset="0" style="stop-color:rgb(198,221,243);stop-opacity:1"/><stop offset="0.83" style="stop-color:rgb(0,79,211);stop-opacity:1"/><stop offset="1" style="stop-color:rgb(0,79,211);stop-opacity:1"/></linearGradient>
    </defs>
</svg>
